<?xml version="1.0" encoding="UTF-8" standalone="no"?>
<!DOCTYPE svg PUBLIC "-//W3C//DTD SVG 1.1//EN"
 "http://www.w3.org/Graphics/SVG/1.1/DTD/svg11.dtd">
<!-- Generated by graphviz version 5.0.0 (20220707.1540)
 -->
<!-- Title: dependencies Pages: 1 -->
<svg width="698pt" height="247pt"
 viewBox="0.00 0.00 698.00 246.80" xmlns="http://www.w3.org/2000/svg" xmlns:xlink="http://www.w3.org/1999/xlink">
<g id="graph0" class="graph" transform="scale(1 1) rotate(0) translate(4 242.8)">
<title>dependencies</title>
<polygon fill="white" stroke="transparent" points="-4,4 -4,-242.8 694,-242.8 694,4 -4,4"/>
<text text-anchor="middle" x="345" y="-8.2" font-family="sans-serif" font-size="14.00">dependencies</text>
<g id="clust1" class="cluster">
<title>cluster_CoreModule</title>
<polygon fill="none" stroke="black" stroke-dasharray="1,5" points="8,-32.8 8,-230.8 682,-230.8 682,-32.8 8,-32.8"/>
</g>
<g id="clust8" class="cluster">
<title>cluster_CoreModule_exports</title>
<polygon fill="none" stroke="black" points="133,-170.8 133,-222.8 551,-222.8 551,-170.8 133,-170.8"/>
</g>
<g id="clust2" class="cluster">
<title>cluster_CoreModule_declarations</title>
<polygon fill="none" stroke="black" points="138,-40.8 138,-92.8 674,-92.8 674,-40.8 138,-40.8"/>
</g>
<g id="clust7" class="cluster">
<title>cluster_CoreModule_imports</title>
<polygon fill="none" stroke="black" points="16,-40.8 16,-92.8 130,-92.8 130,-40.8 16,-40.8"/>
</g>
<!-- ErrorComponent -->
<g id="node1" class="node">
<title>ErrorComponent</title>
<polygon fill="#ffffb3" stroke="black" points="666.37,-84.8 555.63,-84.8 555.63,-48.8 666.37,-48.8 666.37,-84.8"/>
<text text-anchor="middle" x="611" y="-62.6" font-family="Times,serif" font-size="14.00">ErrorComponent</text>
</g>
<!-- CoreModule -->
<g id="node5" class="node">
<title>CoreModule</title>
<polygon fill="#8dd3c7" stroke="black" points="384.27,-149.8 381.27,-153.8 360.27,-153.8 357.27,-149.8 297.73,-149.8 297.73,-113.8 384.27,-113.8 384.27,-149.8"/>
<text text-anchor="middle" x="341" y="-127.6" font-family="Times,serif" font-size="14.00">CoreModule</text>
</g>
<!-- ErrorComponent&#45;&gt;CoreModule -->
<g id="edge1" class="edge">
<title>ErrorComponent&#45;&gt;CoreModule</title>
<path fill="none" stroke="black" d="M611,-84.91C611,-104.14 611,-131.8 611,-131.8 611,-131.8 394.38,-131.8 394.38,-131.8"/>
<polygon fill="black" stroke="black" points="394.38,-128.3 384.38,-131.8 394.38,-135.3 394.38,-128.3"/>
</g>
<!-- FooterComponent -->
<g id="node2" class="node">
<title>FooterComponent</title>
<polygon fill="#ffffb3" stroke="black" points="537.88,-84.8 420.12,-84.8 420.12,-48.8 537.88,-48.8 537.88,-84.8"/>
<text text-anchor="middle" x="479" y="-62.6" font-family="Times,serif" font-size="14.00">FooterComponent</text>
</g>
<!-- FooterComponent&#45;&gt;CoreModule -->
<g id="edge2" class="edge">
<title>FooterComponent&#45;&gt;CoreModule</title>
<path fill="none" stroke="black" d="M499.06,-84.83C499.06,-101.2 499.06,-122.8 499.06,-122.8 499.06,-122.8 394.61,-122.8 394.61,-122.8"/>
<polygon fill="black" stroke="black" points="394.61,-119.3 384.61,-122.8 394.61,-126.3 394.61,-119.3"/>
</g>
<!-- HeaderComponent -->
<g id="node3" class="node">
<title>HeaderComponent</title>
<polygon fill="#ffffb3" stroke="black" points="401.75,-84.8 280.25,-84.8 280.25,-48.8 401.75,-48.8 401.75,-84.8"/>
<text text-anchor="middle" x="341" y="-62.6" font-family="Times,serif" font-size="14.00">HeaderComponent</text>
</g>
<!-- HeaderComponent&#45;&gt;CoreModule -->
<g id="edge3" class="edge">
<title>HeaderComponent&#45;&gt;CoreModule</title>
<path fill="none" stroke="black" d="M341,-84.91C341,-84.91 341,-103.79 341,-103.79"/>
<polygon fill="black" stroke="black" points="337.5,-103.79 341,-113.79 344.5,-103.79 337.5,-103.79"/>
</g>
<!-- HomeComponent -->
<g id="node4" class="node">
<title>HomeComponent</title>
<polygon fill="#ffffb3" stroke="black" points="261.55,-84.8 146.45,-84.8 146.45,-48.8 261.55,-48.8 261.55,-84.8"/>
<text text-anchor="middle" x="204" y="-62.6" font-family="Times,serif" font-size="14.00">HomeComponent</text>
</g>
<!-- HomeComponent&#45;&gt;CoreModule -->
<g id="edge4" class="edge">
<title>HomeComponent&#45;&gt;CoreModule</title>
<path fill="none" stroke="black" d="M222.42,-84.83C222.42,-101.2 222.42,-122.8 222.42,-122.8 222.42,-122.8 287.52,-122.8 287.52,-122.8"/>
<polygon fill="black" stroke="black" points="287.52,-126.3 297.52,-122.8 287.52,-119.3 287.52,-126.3"/>
</g>
<!-- FooterComponent  -->
<g id="node7" class="node">
<title>FooterComponent </title>
<polygon fill="#fb8072" stroke="black" points="542.88,-214.8 421.12,-214.8 421.12,-178.8 542.88,-178.8 542.88,-214.8"/>
<text text-anchor="middle" x="482" y="-192.6" font-family="Times,serif" font-size="14.00">FooterComponent </text>
</g>
<!-- CoreModule&#45;&gt;FooterComponent  -->
<g id="edge6" class="edge">
<title>CoreModule&#45;&gt;FooterComponent </title>
<path fill="none" stroke="black" stroke-dasharray="5,2" d="M384.37,-140.8C418.44,-140.8 460.19,-140.8 460.19,-140.8 460.19,-140.8 460.19,-168.77 460.19,-168.77"/>
<polygon fill="black" stroke="black" points="456.69,-168.77 460.19,-178.77 463.69,-168.77 456.69,-168.77"/>
</g>
<!-- HeaderComponent  -->
<g id="node8" class="node">
<title>HeaderComponent </title>
<polygon fill="#fb8072" stroke="black" points="403.75,-214.8 278.25,-214.8 278.25,-178.8 403.75,-178.8 403.75,-214.8"/>
<text text-anchor="middle" x="341" y="-192.6" font-family="Times,serif" font-size="14.00">HeaderComponent </text>
</g>
<!-- CoreModule&#45;&gt;HeaderComponent  -->
<g id="edge7" class="edge">
<title>CoreModule&#45;&gt;HeaderComponent </title>
<path fill="none" stroke="black" stroke-dasharray="5,2" d="M341,-149.91C341,-149.91 341,-168.79 341,-168.79"/>
<polygon fill="black" stroke="black" points="337.5,-168.79 341,-178.79 344.5,-168.79 337.5,-168.79"/>
</g>
<!-- HomeComponent  -->
<g id="node9" class="node">
<title>HomeComponent </title>
<polygon fill="#fb8072" stroke="black" points="260.54,-214.8 141.46,-214.8 141.46,-178.8 260.54,-178.8 260.54,-214.8"/>
<text text-anchor="middle" x="201" y="-192.6" font-family="Times,serif" font-size="14.00">HomeComponent </text>
</g>
<!-- CoreModule&#45;&gt;HomeComponent  -->
<g id="edge8" class="edge">
<title>CoreModule&#45;&gt;HomeComponent </title>
<path fill="none" stroke="black" stroke-dasharray="5,2" d="M297.36,-140.8C251,-140.8 184.33,-140.8 184.33,-140.8 184.33,-140.8 184.33,-168.77 184.33,-168.77"/>
<polygon fill="black" stroke="black" points="180.83,-168.77 184.33,-178.77 187.83,-168.77 180.83,-168.77"/>
</g>
<!-- SearchModule -->
<g id="node6" class="node">
<title>SearchModule</title>
<polygon fill="#8dd3c7" stroke="black" points="121.64,-84.8 118.64,-88.8 97.64,-88.8 94.64,-84.8 24.36,-84.8 24.36,-48.8 121.64,-48.8 121.64,-84.8"/>
<text text-anchor="middle" x="73" y="-62.6" font-family="Times,serif" font-size="14.00">SearchModule</text>
</g>
<!-- SearchModule&#45;&gt;CoreModule -->
<g id="edge5" class="edge">
<title>SearchModule&#45;&gt;CoreModule</title>
<path fill="none" stroke="black" d="M73,-84.91C73,-104.14 73,-131.8 73,-131.8 73,-131.8 287.64,-131.8 287.64,-131.8"/>
<polygon fill="black" stroke="black" points="287.64,-135.3 297.64,-131.8 287.64,-128.3 287.64,-135.3"/>
</g>
</g>
</svg>
