<?xml version="1.0" encoding="UTF-8" standalone="no"?>
<!DOCTYPE svg PUBLIC "-//W3C//DTD SVG 1.1//EN"
 "http://www.w3.org/Graphics/SVG/1.1/DTD/svg11.dtd">
<!-- Generated by graphviz version 5.0.0 (20220707.1540)
 -->
<!-- Title: dependencies Pages: 1 -->
<svg width="390pt" height="247pt"
 viewBox="0.00 0.00 390.00 246.80" xmlns="http://www.w3.org/2000/svg" xmlns:xlink="http://www.w3.org/1999/xlink">
<g id="graph0" class="graph" transform="scale(1 1) rotate(0) translate(4 242.8)">
<title>dependencies</title>
<polygon fill="white" stroke="transparent" points="-4,4 -4,-242.8 386,-242.8 386,4 -4,4"/>
<text text-anchor="middle" x="191" y="-8.2" font-family="sans-serif" font-size="14.00">dependencies</text>
<g id="clust1" class="cluster">
<title>cluster_SharedModule</title>
<polygon fill="none" stroke="black" stroke-dasharray="1,5" points="8,-32.8 8,-230.8 374,-230.8 374,-32.8 8,-32.8"/>
</g>
<g id="clust7" class="cluster">
<title>cluster_SharedModule_exports</title>
<polygon fill="none" stroke="black" points="16,-170.8 16,-222.8 366,-222.8 366,-170.8 16,-170.8"/>
</g>
<g id="clust2" class="cluster">
<title>cluster_SharedModule_declarations</title>
<polygon fill="none" stroke="black" points="21,-40.8 21,-92.8 360,-92.8 360,-40.8 21,-40.8"/>
</g>
<!-- DelayDirective -->
<g id="node1" class="node">
<title>DelayDirective</title>
<polygon fill="#ffffb3" stroke="black" points="351.51,-84.8 250.49,-84.8 250.49,-48.8 351.51,-48.8 351.51,-84.8"/>
<text text-anchor="middle" x="301" y="-62.6" font-family="Times,serif" font-size="14.00">DelayDirective</text>
</g>
<!-- SharedModule -->
<g id="node4" class="node">
<title>SharedModule</title>
<polygon fill="#8dd3c7" stroke="black" points="249.43,-149.8 246.43,-153.8 225.43,-153.8 222.43,-149.8 150.57,-149.8 150.57,-113.8 249.43,-113.8 249.43,-149.8"/>
<text text-anchor="middle" x="200" y="-127.6" font-family="Times,serif" font-size="14.00">SharedModule</text>
</g>
<!-- DelayDirective&#45;&gt;SharedModule -->
<g id="edge1" class="edge">
<title>DelayDirective&#45;&gt;SharedModule</title>
<path fill="none" stroke="black" d="M250.25,-66.8C244.62,-66.8 240.86,-66.8 240.86,-66.8 240.86,-66.8 240.86,-103.69 240.86,-103.69"/>
<polygon fill="black" stroke="black" points="237.36,-103.69 240.86,-113.69 244.36,-103.69 237.36,-103.69"/>
</g>
<!-- IsbnPipe -->
<g id="node2" class="node">
<title>IsbnPipe</title>
<polygon fill="#ffffb3" stroke="black" points="232.5,-84.8 167.5,-84.8 167.5,-48.8 232.5,-48.8 232.5,-84.8"/>
<text text-anchor="middle" x="200" y="-62.6" font-family="Times,serif" font-size="14.00">IsbnPipe</text>
</g>
<!-- IsbnPipe&#45;&gt;SharedModule -->
<g id="edge2" class="edge">
<title>IsbnPipe&#45;&gt;SharedModule</title>
<path fill="none" stroke="black" d="M200,-84.91C200,-84.91 200,-103.79 200,-103.79"/>
<polygon fill="black" stroke="black" points="196.5,-103.79 200,-113.79 203.5,-103.79 196.5,-103.79"/>
</g>
<!-- LoaderComponent -->
<g id="node3" class="node">
<title>LoaderComponent</title>
<polygon fill="#ffffb3" stroke="black" points="149.47,-84.8 28.53,-84.8 28.53,-48.8 149.47,-48.8 149.47,-84.8"/>
<text text-anchor="middle" x="89" y="-62.6" font-family="Times,serif" font-size="14.00">LoaderComponent</text>
</g>
<!-- LoaderComponent&#45;&gt;SharedModule -->
<g id="edge3" class="edge">
<title>LoaderComponent&#45;&gt;SharedModule</title>
<path fill="none" stroke="black" d="M149.68,-66.8C155.42,-66.8 159.14,-66.8 159.14,-66.8 159.14,-66.8 159.14,-103.69 159.14,-103.69"/>
<polygon fill="black" stroke="black" points="155.64,-103.69 159.14,-113.69 162.64,-103.69 155.64,-103.69"/>
</g>
<!-- DelayDirective  -->
<g id="node5" class="node">
<title>DelayDirective </title>
<polygon fill="#fb8072" stroke="black" points="357.51,-214.8 252.49,-214.8 252.49,-178.8 357.51,-178.8 357.51,-214.8"/>
<text text-anchor="middle" x="305" y="-192.6" font-family="Times,serif" font-size="14.00">DelayDirective </text>
</g>
<!-- SharedModule&#45;&gt;DelayDirective  -->
<g id="edge4" class="edge">
<title>SharedModule&#45;&gt;DelayDirective </title>
<path fill="none" stroke="black" stroke-dasharray="5,2" d="M241.73,-149.91C241.73,-169.14 241.73,-196.8 241.73,-196.8 241.73,-196.8 242.81,-196.8 242.81,-196.8"/>
<polygon fill="black" stroke="black" points="242.46,-200.3 252.46,-196.8 242.46,-193.3 242.46,-200.3"/>
</g>
<!-- IsbnPipe  -->
<g id="node6" class="node">
<title>IsbnPipe </title>
<polygon fill="#fb8072" stroke="black" points="234,-214.8 166,-214.8 166,-178.8 234,-178.8 234,-214.8"/>
<text text-anchor="middle" x="200" y="-192.6" font-family="Times,serif" font-size="14.00">IsbnPipe </text>
</g>
<!-- SharedModule&#45;&gt;IsbnPipe  -->
<g id="edge5" class="edge">
<title>SharedModule&#45;&gt;IsbnPipe </title>
<path fill="none" stroke="black" stroke-dasharray="5,2" d="M200,-149.91C200,-149.91 200,-168.79 200,-168.79"/>
<polygon fill="black" stroke="black" points="196.5,-168.79 200,-178.79 203.5,-168.79 196.5,-168.79"/>
</g>
<!-- LoaderComponent  -->
<g id="node7" class="node">
<title>LoaderComponent </title>
<polygon fill="#fb8072" stroke="black" points="148.47,-214.8 23.53,-214.8 23.53,-178.8 148.47,-178.8 148.47,-214.8"/>
<text text-anchor="middle" x="86" y="-192.6" font-family="Times,serif" font-size="14.00">LoaderComponent </text>
</g>
<!-- SharedModule&#45;&gt;LoaderComponent  -->
<g id="edge6" class="edge">
<title>SharedModule&#45;&gt;LoaderComponent </title>
<path fill="none" stroke="black" stroke-dasharray="5,2" d="M158.27,-149.91C158.27,-169.14 158.27,-196.8 158.27,-196.8 158.27,-196.8 157.29,-196.8 157.29,-196.8"/>
<polygon fill="black" stroke="black" points="158.52,-193.3 148.52,-196.8 158.52,-200.3 158.52,-193.3"/>
</g>
</g>
</svg>
