<?xml version="1.0" encoding="UTF-8" standalone="no"?>
<!DOCTYPE svg PUBLIC "-//W3C//DTD SVG 1.1//EN"
 "http://www.w3.org/Graphics/SVG/1.1/DTD/svg11.dtd">
<!-- Generated by graphviz version 5.0.0 (20220707.1540)
 -->
<!-- Title: dependencies Pages: 1 -->
<svg width="899pt" height="174pt"
 viewBox="0.00 0.00 899.00 173.80" xmlns="http://www.w3.org/2000/svg" xmlns:xlink="http://www.w3.org/1999/xlink">
<g id="graph0" class="graph" transform="scale(1 1) rotate(0) translate(4 169.8)">
<title>dependencies</title>
<polygon fill="white" stroke="transparent" points="-4,4 -4,-169.8 895,-169.8 895,4 -4,4"/>
<text text-anchor="middle" x="445.5" y="-8.2" font-family="sans-serif" font-size="14.00">dependencies</text>
<g id="clust1" class="cluster">
<title>cluster_AuthModule</title>
<polygon fill="none" stroke="black" stroke-dasharray="1,5" points="8,-32.8 8,-157.8 883,-157.8 883,-32.8 8,-32.8"/>
</g>
<g id="clust2" class="cluster">
<title>cluster_AuthModule_declarations</title>
<polygon fill="none" stroke="black" points="138,-40.8 138,-92.8 875,-92.8 875,-40.8 138,-40.8"/>
</g>
<g id="clust8" class="cluster">
<title>cluster_AuthModule_imports</title>
<polygon fill="none" stroke="black" points="16,-40.8 16,-92.8 130,-92.8 130,-40.8 16,-40.8"/>
</g>
<!-- LoginComponent -->
<g id="node1" class="node">
<title>LoginComponent</title>
<polygon fill="#ffffb3" stroke="black" points="867.27,-84.8 752.73,-84.8 752.73,-48.8 867.27,-48.8 867.27,-84.8"/>
<text text-anchor="middle" x="810" y="-62.6" font-family="Times,serif" font-size="14.00">LoginComponent</text>
</g>
<!-- AuthModule -->
<g id="node6" class="node">
<title>AuthModule</title>
<polygon fill="#8dd3c7" stroke="black" points="475.55,-149.8 472.55,-153.8 451.55,-153.8 448.55,-149.8 388.45,-149.8 388.45,-113.8 475.55,-113.8 475.55,-149.8"/>
<text text-anchor="middle" x="432" y="-127.6" font-family="Times,serif" font-size="14.00">AuthModule</text>
</g>
<!-- LoginComponent&#45;&gt;AuthModule -->
<g id="edge1" class="edge">
<title>LoginComponent&#45;&gt;AuthModule</title>
<path fill="none" stroke="black" d="M810,-85.08C810,-106.12 810,-137.8 810,-137.8 810,-137.8 485.73,-137.8 485.73,-137.8"/>
<polygon fill="black" stroke="black" points="485.73,-134.3 475.73,-137.8 485.73,-141.3 485.73,-134.3"/>
</g>
<!-- LogoutComponent -->
<g id="node2" class="node">
<title>LogoutComponent</title>
<polygon fill="#ffffb3" stroke="black" points="734.77,-84.8 613.23,-84.8 613.23,-48.8 734.77,-48.8 734.77,-84.8"/>
<text text-anchor="middle" x="674" y="-62.6" font-family="Times,serif" font-size="14.00">LogoutComponent</text>
</g>
<!-- LogoutComponent&#45;&gt;AuthModule -->
<g id="edge2" class="edge">
<title>LogoutComponent&#45;&gt;AuthModule</title>
<path fill="none" stroke="black" d="M674,-84.82C674,-102.17 674,-125.8 674,-125.8 674,-125.8 485.82,-125.8 485.82,-125.8"/>
<polygon fill="black" stroke="black" points="485.82,-122.3 475.82,-125.8 485.82,-129.3 485.82,-122.3"/>
</g>
<!-- PageNotFoundComponent -->
<g id="node3" class="node">
<title>PageNotFoundComponent</title>
<polygon fill="#ffffb3" stroke="black" points="594.83,-84.8 429.17,-84.8 429.17,-48.8 594.83,-48.8 594.83,-84.8"/>
<text text-anchor="middle" x="512" y="-62.6" font-family="Times,serif" font-size="14.00">PageNotFoundComponent</text>
</g>
<!-- PageNotFoundComponent&#45;&gt;AuthModule -->
<g id="edge3" class="edge">
<title>PageNotFoundComponent&#45;&gt;AuthModule</title>
<path fill="none" stroke="black" d="M452.56,-84.91C452.56,-84.91 452.56,-103.79 452.56,-103.79"/>
<polygon fill="black" stroke="black" points="449.06,-103.79 452.56,-113.79 456.06,-103.79 449.06,-103.79"/>
</g>
<!-- ProfileComponent -->
<g id="node4" class="node">
<title>ProfileComponent</title>
<polygon fill="#ffffb3" stroke="black" points="411.94,-84.8 292.06,-84.8 292.06,-48.8 411.94,-48.8 411.94,-84.8"/>
<text text-anchor="middle" x="352" y="-62.6" font-family="Times,serif" font-size="14.00">ProfileComponent</text>
</g>
<!-- ProfileComponent&#45;&gt;AuthModule -->
<g id="edge4" class="edge">
<title>ProfileComponent&#45;&gt;AuthModule</title>
<path fill="none" stroke="black" d="M399.97,-84.91C399.97,-84.91 399.97,-103.79 399.97,-103.79"/>
<polygon fill="black" stroke="black" points="396.47,-103.79 399.97,-113.79 403.47,-103.79 396.47,-103.79"/>
</g>
<!-- RegisterComponent -->
<g id="node5" class="node">
<title>RegisterComponent</title>
<polygon fill="#ffffb3" stroke="black" points="273.99,-84.8 146.01,-84.8 146.01,-48.8 273.99,-48.8 273.99,-84.8"/>
<text text-anchor="middle" x="210" y="-62.6" font-family="Times,serif" font-size="14.00">RegisterComponent</text>
</g>
<!-- RegisterComponent&#45;&gt;AuthModule -->
<g id="edge5" class="edge">
<title>RegisterComponent&#45;&gt;AuthModule</title>
<path fill="none" stroke="black" d="M210,-84.82C210,-102.17 210,-125.8 210,-125.8 210,-125.8 378.4,-125.8 378.4,-125.8"/>
<polygon fill="black" stroke="black" points="378.4,-129.3 388.4,-125.8 378.4,-122.3 378.4,-129.3"/>
</g>
<!-- SharedModule -->
<g id="node7" class="node">
<title>SharedModule</title>
<polygon fill="#8dd3c7" stroke="black" points="122.43,-84.8 119.43,-88.8 98.43,-88.8 95.43,-84.8 23.57,-84.8 23.57,-48.8 122.43,-48.8 122.43,-84.8"/>
<text text-anchor="middle" x="73" y="-62.6" font-family="Times,serif" font-size="14.00">SharedModule</text>
</g>
<!-- SharedModule&#45;&gt;AuthModule -->
<g id="edge6" class="edge">
<title>SharedModule&#45;&gt;AuthModule</title>
<path fill="none" stroke="black" d="M73,-85.08C73,-106.12 73,-137.8 73,-137.8 73,-137.8 378.34,-137.8 378.34,-137.8"/>
<polygon fill="black" stroke="black" points="378.34,-141.3 388.34,-137.8 378.34,-134.3 378.34,-141.3"/>
</g>
</g>
</svg>
