<?xml version="1.0" encoding="UTF-8" standalone="no"?>
<!DOCTYPE svg PUBLIC "-//W3C//DTD SVG 1.1//EN"
 "http://www.w3.org/Graphics/SVG/1.1/DTD/svg11.dtd">
<!-- Generated by graphviz version 5.0.0 (20220707.1540)
 -->
<!-- Title: dependencies Pages: 1 -->
<svg width="702pt" height="247pt"
 viewBox="0.00 0.00 702.00 246.80" xmlns="http://www.w3.org/2000/svg" xmlns:xlink="http://www.w3.org/1999/xlink">
<g id="graph0" class="graph" transform="scale(1 1) rotate(0) translate(4 242.8)">
<title>dependencies</title>
<polygon fill="white" stroke="transparent" points="-4,4 -4,-242.8 698,-242.8 698,4 -4,4"/>
<text text-anchor="middle" x="347" y="-8.2" font-family="sans-serif" font-size="14.00">dependencies</text>
<g id="clust1" class="cluster">
<title>cluster_SearchModule</title>
<polygon fill="none" stroke="black" stroke-dasharray="1,5" points="8,-32.8 8,-230.8 686,-230.8 686,-32.8 8,-32.8"/>
</g>
<g id="clust2" class="cluster">
<title>cluster_SearchModule_declarations</title>
<polygon fill="none" stroke="black" points="146,-40.8 146,-92.8 678,-92.8 678,-40.8 146,-40.8"/>
</g>
<g id="clust7" class="cluster">
<title>cluster_SearchModule_exports</title>
<polygon fill="none" stroke="black" points="238,-170.8 238,-222.8 422,-222.8 422,-170.8 238,-170.8"/>
</g>
<g id="clust6" class="cluster">
<title>cluster_SearchModule_imports</title>
<polygon fill="none" stroke="black" points="16,-40.8 16,-92.8 138,-92.8 138,-40.8 16,-40.8"/>
</g>
<!-- SearchApiComponent -->
<g id="node1" class="node">
<title>SearchApiComponent</title>
<polygon fill="#ffffb3" stroke="black" points="670.42,-84.8 529.58,-84.8 529.58,-48.8 670.42,-48.8 670.42,-84.8"/>
<text text-anchor="middle" x="600" y="-62.6" font-family="Times,serif" font-size="14.00">SearchApiComponent</text>
</g>
<!-- SearchModule -->
<g id="node4" class="node">
<title>SearchModule</title>
<polygon fill="#8dd3c7" stroke="black" points="378.64,-149.8 375.64,-153.8 354.64,-153.8 351.64,-149.8 281.36,-149.8 281.36,-113.8 378.64,-113.8 378.64,-149.8"/>
<text text-anchor="middle" x="330" y="-127.6" font-family="Times,serif" font-size="14.00">SearchModule</text>
</g>
<!-- SearchApiComponent&#45;&gt;SearchModule -->
<g id="edge1" class="edge">
<title>SearchApiComponent&#45;&gt;SearchModule</title>
<path fill="none" stroke="black" d="M600,-84.91C600,-104.14 600,-131.8 600,-131.8 600,-131.8 388.89,-131.8 388.89,-131.8"/>
<polygon fill="black" stroke="black" points="388.89,-128.3 378.89,-131.8 388.89,-135.3 388.89,-128.3"/>
</g>
<!-- SearchBookItemComponent -->
<g id="node2" class="node">
<title>SearchBookItemComponent</title>
<polygon fill="#ffffb3" stroke="black" points="511.91,-84.8 336.09,-84.8 336.09,-48.8 511.91,-48.8 511.91,-84.8"/>
<text text-anchor="middle" x="424" y="-62.6" font-family="Times,serif" font-size="14.00">SearchBookItemComponent</text>
</g>
<!-- SearchBookItemComponent&#45;&gt;SearchModule -->
<g id="edge2" class="edge">
<title>SearchBookItemComponent&#45;&gt;SearchModule</title>
<path fill="none" stroke="black" d="M357.56,-84.91C357.56,-84.91 357.56,-103.79 357.56,-103.79"/>
<polygon fill="black" stroke="black" points="354.06,-103.79 357.56,-113.79 361.06,-103.79 354.06,-103.79"/>
</g>
<!-- SearchContentComponent -->
<g id="node3" class="node">
<title>SearchContentComponent</title>
<polygon fill="#ffffb3" stroke="black" points="317.75,-84.8 154.25,-84.8 154.25,-48.8 317.75,-48.8 317.75,-84.8"/>
<text text-anchor="middle" x="236" y="-62.6" font-family="Times,serif" font-size="14.00">SearchContentComponent</text>
</g>
<!-- SearchContentComponent&#45;&gt;SearchModule -->
<g id="edge3" class="edge">
<title>SearchContentComponent&#45;&gt;SearchModule</title>
<path fill="none" stroke="black" d="M299.53,-84.91C299.53,-84.91 299.53,-103.79 299.53,-103.79"/>
<polygon fill="black" stroke="black" points="296.03,-103.79 299.53,-113.79 303.03,-103.79 296.03,-103.79"/>
</g>
<!-- SearchContentComponent  -->
<g id="node6" class="node">
<title>SearchContentComponent </title>
<polygon fill="#fb8072" stroke="black" points="413.75,-214.8 246.25,-214.8 246.25,-178.8 413.75,-178.8 413.75,-214.8"/>
<text text-anchor="middle" x="330" y="-192.6" font-family="Times,serif" font-size="14.00">SearchContentComponent </text>
</g>
<!-- SearchModule&#45;&gt;SearchContentComponent  -->
<g id="edge5" class="edge">
<title>SearchModule&#45;&gt;SearchContentComponent </title>
<path fill="none" stroke="black" stroke-dasharray="5,2" d="M330,-149.91C330,-149.91 330,-168.79 330,-168.79"/>
<polygon fill="black" stroke="black" points="326.5,-168.79 330,-178.79 333.5,-168.79 326.5,-168.79"/>
</g>
<!-- MaterialModule -->
<g id="node5" class="node">
<title>MaterialModule</title>
<polygon fill="#8dd3c7" stroke="black" points="130.47,-84.8 127.47,-88.8 106.47,-88.8 103.47,-84.8 23.53,-84.8 23.53,-48.8 130.47,-48.8 130.47,-84.8"/>
<text text-anchor="middle" x="77" y="-62.6" font-family="Times,serif" font-size="14.00">MaterialModule</text>
</g>
<!-- MaterialModule&#45;&gt;SearchModule -->
<g id="edge4" class="edge">
<title>MaterialModule&#45;&gt;SearchModule</title>
<path fill="none" stroke="black" d="M77,-84.91C77,-104.14 77,-131.8 77,-131.8 77,-131.8 271.22,-131.8 271.22,-131.8"/>
<polygon fill="black" stroke="black" points="271.22,-135.3 281.22,-131.8 271.22,-128.3 271.22,-135.3"/>
</g>
</g>
</svg>
