<?xml version="1.0" encoding="UTF-8" standalone="no"?>
<!DOCTYPE svg PUBLIC "-//W3C//DTD SVG 1.1//EN"
 "http://www.w3.org/Graphics/SVG/1.1/DTD/svg11.dtd">
<!-- Generated by graphviz version 5.0.0 (20220707.1540)
 -->
<!-- Title: dependencies Pages: 1 -->
<svg width="1039pt" height="247pt"
 viewBox="0.00 0.00 1039.00 246.80" xmlns="http://www.w3.org/2000/svg" xmlns:xlink="http://www.w3.org/1999/xlink">
<g id="graph0" class="graph" transform="scale(1 1) rotate(0) translate(4 242.8)">
<title>dependencies</title>
<polygon fill="white" stroke="transparent" points="-4,4 -4,-242.8 1035,-242.8 1035,4 -4,4"/>
<text text-anchor="middle" x="515.5" y="-8.2" font-family="sans-serif" font-size="14.00">dependencies</text>
<g id="clust1" class="cluster">
<title>cluster_AppModule</title>
<polygon fill="none" stroke="black" stroke-dasharray="1,5" points="8,-32.8 8,-230.8 1023,-230.8 1023,-32.8 8,-32.8"/>
</g>
<g id="clust2" class="cluster">
<title>cluster_AppModule_declarations</title>
<polygon fill="none" stroke="black" points="723,-40.8 723,-92.8 1015,-92.8 1015,-40.8 723,-40.8"/>
</g>
<g id="clust5" class="cluster">
<title>cluster_AppModule_imports</title>
<polygon fill="none" stroke="black" points="16,-40.8 16,-92.8 715,-92.8 715,-40.8 16,-40.8"/>
</g>
<g id="clust7" class="cluster">
<title>cluster_AppModule_bootstrap</title>
<polygon fill="none" stroke="black" points="400,-170.8 400,-222.8 524,-222.8 524,-170.8 400,-170.8"/>
</g>
<!-- AppComponent -->
<g id="node1" class="node">
<title>AppComponent</title>
<polygon fill="#ffffb3" stroke="black" points="1006.94,-84.8 901.06,-84.8 901.06,-48.8 1006.94,-48.8 1006.94,-84.8"/>
<text text-anchor="middle" x="954" y="-62.6" font-family="Times,serif" font-size="14.00">AppComponent</text>
</g>
<!-- AppModule -->
<g id="node3" class="node">
<title>AppModule</title>
<polygon fill="#8dd3c7" stroke="black" points="503.66,-149.8 500.66,-153.8 479.66,-153.8 476.66,-149.8 420.34,-149.8 420.34,-113.8 503.66,-113.8 503.66,-149.8"/>
<text text-anchor="middle" x="462" y="-127.6" font-family="Times,serif" font-size="14.00">AppModule</text>
</g>
<!-- AppComponent&#45;&gt;AppModule -->
<g id="edge1" class="edge">
<title>AppComponent&#45;&gt;AppModule</title>
<path fill="none" stroke="black" d="M954,-85.09C954,-107.01 954,-140.8 954,-140.8 954,-140.8 513.95,-140.8 513.95,-140.8"/>
<polygon fill="black" stroke="black" points="513.95,-137.3 503.95,-140.8 513.95,-144.3 513.95,-137.3"/>
</g>
<!-- AuthenticateComponent -->
<g id="node2" class="node">
<title>AuthenticateComponent</title>
<polygon fill="#ffffb3" stroke="black" points="883.36,-84.8 730.64,-84.8 730.64,-48.8 883.36,-48.8 883.36,-84.8"/>
<text text-anchor="middle" x="807" y="-62.6" font-family="Times,serif" font-size="14.00">AuthenticateComponent</text>
</g>
<!-- AuthenticateComponent&#45;&gt;AppModule -->
<g id="edge2" class="edge">
<title>AuthenticateComponent&#45;&gt;AppModule</title>
<path fill="none" stroke="black" d="M807,-84.91C807,-104.14 807,-131.8 807,-131.8 807,-131.8 513.96,-131.8 513.96,-131.8"/>
<polygon fill="black" stroke="black" points="513.96,-128.3 503.96,-131.8 513.96,-135.3 513.96,-128.3"/>
</g>
<!-- AppComponent  -->
<g id="node10" class="node">
<title>AppComponent </title>
<polygon fill="#80b1d3" stroke="black" points="516.44,-214.8 407.56,-214.8 407.56,-178.8 516.44,-178.8 516.44,-214.8"/>
<text text-anchor="middle" x="462" y="-192.6" font-family="Times,serif" font-size="14.00">AppComponent </text>
</g>
<!-- AppModule&#45;&gt;AppComponent  -->
<g id="edge9" class="edge">
<title>AppModule&#45;&gt;AppComponent </title>
<path fill="none" stroke="black" stroke-dasharray="1,5" d="M462,-149.91C462,-149.91 462,-168.79 462,-168.79"/>
<polygon fill="black" stroke="black" points="458.5,-168.79 462,-178.79 465.5,-168.79 458.5,-168.79"/>
</g>
<!-- AppRoutingModule -->
<g id="node4" class="node">
<title>AppRoutingModule</title>
<polygon fill="#8dd3c7" stroke="black" points="707.28,-84.8 704.28,-88.8 683.28,-88.8 680.28,-84.8 578.72,-84.8 578.72,-48.8 707.28,-48.8 707.28,-84.8"/>
<text text-anchor="middle" x="643" y="-62.6" font-family="Times,serif" font-size="14.00">AppRoutingModule</text>
</g>
<!-- AppRoutingModule&#45;&gt;AppModule -->
<g id="edge3" class="edge">
<title>AppRoutingModule&#45;&gt;AppModule</title>
<path fill="none" stroke="black" d="M643,-84.83C643,-101.2 643,-122.8 643,-122.8 643,-122.8 513.98,-122.8 513.98,-122.8"/>
<polygon fill="black" stroke="black" points="513.98,-119.3 503.98,-122.8 513.98,-126.3 513.98,-119.3"/>
</g>
<!-- AuthModule -->
<g id="node5" class="node">
<title>AuthModule</title>
<polygon fill="#8dd3c7" stroke="black" points="560.55,-84.8 557.55,-88.8 536.55,-88.8 533.55,-84.8 473.45,-84.8 473.45,-48.8 560.55,-48.8 560.55,-84.8"/>
<text text-anchor="middle" x="517" y="-62.6" font-family="Times,serif" font-size="14.00">AuthModule</text>
</g>
<!-- AuthModule&#45;&gt;AppModule -->
<g id="edge4" class="edge">
<title>AuthModule&#45;&gt;AppModule</title>
<path fill="none" stroke="black" d="M488.53,-84.91C488.53,-84.91 488.53,-103.79 488.53,-103.79"/>
<polygon fill="black" stroke="black" points="485.03,-103.79 488.53,-113.79 492.03,-103.79 485.03,-103.79"/>
</g>
<!-- BooksModule -->
<g id="node6" class="node">
<title>BooksModule</title>
<polygon fill="#8dd3c7" stroke="black" points="455.84,-84.8 452.84,-88.8 431.84,-88.8 428.84,-84.8 360.16,-84.8 360.16,-48.8 455.84,-48.8 455.84,-84.8"/>
<text text-anchor="middle" x="408" y="-62.6" font-family="Times,serif" font-size="14.00">BooksModule</text>
</g>
<!-- BooksModule&#45;&gt;AppModule -->
<g id="edge5" class="edge">
<title>BooksModule&#45;&gt;AppModule</title>
<path fill="none" stroke="black" d="M437.92,-84.91C437.92,-84.91 437.92,-103.79 437.92,-103.79"/>
<polygon fill="black" stroke="black" points="434.42,-103.79 437.92,-113.79 441.42,-103.79 434.42,-103.79"/>
</g>
<!-- CoreModule -->
<g id="node7" class="node">
<title>CoreModule</title>
<polygon fill="#8dd3c7" stroke="black" points="342.27,-84.8 339.27,-88.8 318.27,-88.8 315.27,-84.8 255.73,-84.8 255.73,-48.8 342.27,-48.8 342.27,-84.8"/>
<text text-anchor="middle" x="299" y="-62.6" font-family="Times,serif" font-size="14.00">CoreModule</text>
</g>
<!-- CoreModule&#45;&gt;AppModule -->
<g id="edge6" class="edge">
<title>CoreModule&#45;&gt;AppModule</title>
<path fill="none" stroke="black" d="M299,-84.83C299,-101.2 299,-122.8 299,-122.8 299,-122.8 410.02,-122.8 410.02,-122.8"/>
<polygon fill="black" stroke="black" points="410.02,-126.3 420.02,-122.8 410.02,-119.3 410.02,-126.3"/>
</g>
<!-- SearchModule -->
<g id="node8" class="node">
<title>SearchModule</title>
<polygon fill="#8dd3c7" stroke="black" points="237.64,-84.8 234.64,-88.8 213.64,-88.8 210.64,-84.8 140.36,-84.8 140.36,-48.8 237.64,-48.8 237.64,-84.8"/>
<text text-anchor="middle" x="189" y="-62.6" font-family="Times,serif" font-size="14.00">SearchModule</text>
</g>
<!-- SearchModule&#45;&gt;AppModule -->
<g id="edge7" class="edge">
<title>SearchModule&#45;&gt;AppModule</title>
<path fill="none" stroke="black" d="M189,-84.91C189,-104.14 189,-131.8 189,-131.8 189,-131.8 410.24,-131.8 410.24,-131.8"/>
<polygon fill="black" stroke="black" points="410.24,-135.3 420.24,-131.8 410.24,-128.3 410.24,-135.3"/>
</g>
<!-- SharedModule -->
<g id="node9" class="node">
<title>SharedModule</title>
<polygon fill="#8dd3c7" stroke="black" points="122.43,-84.8 119.43,-88.8 98.43,-88.8 95.43,-84.8 23.57,-84.8 23.57,-48.8 122.43,-48.8 122.43,-84.8"/>
<text text-anchor="middle" x="73" y="-62.6" font-family="Times,serif" font-size="14.00">SharedModule</text>
</g>
<!-- SharedModule&#45;&gt;AppModule -->
<g id="edge8" class="edge">
<title>SharedModule&#45;&gt;AppModule</title>
<path fill="none" stroke="black" d="M73,-85.09C73,-107.01 73,-140.8 73,-140.8 73,-140.8 410,-140.8 410,-140.8"/>
<polygon fill="black" stroke="black" points="410,-144.3 420,-140.8 410,-137.3 410,-144.3"/>
</g>
</g>
</svg>
