<?xml version="1.0" encoding="UTF-8" standalone="no"?>
<!DOCTYPE svg PUBLIC "-//W3C//DTD SVG 1.1//EN"
 "http://www.w3.org/Graphics/SVG/1.1/DTD/svg11.dtd">
<!-- Generated by graphviz version 5.0.0 (20220707.1540)
 -->
<!-- Title: dependencies Pages: 1 -->
<svg width="4370pt" height="399pt"
 viewBox="0.00 0.00 4370.00 398.80" xmlns="http://www.w3.org/2000/svg" xmlns:xlink="http://www.w3.org/1999/xlink">
<g id="graph0" class="graph" transform="scale(1 1) rotate(0) translate(4 394.8)">
<title>dependencies</title>
<polygon fill="white" stroke="transparent" points="-4,4 -4,-394.8 4366,-394.8 4366,4 -4,4"/>
<text text-anchor="middle" x="2181" y="-8.2" font-family="sans-serif" font-size="14.00">dependencies</text>
<g id="clust1" class="cluster">
<title>cluster_AppModule</title>
<polygon fill="none" stroke="black" stroke-dasharray="1,5" points="2940,-108.8 2940,-382.8 3633,-382.8 3633,-108.8 2940,-108.8"/>
</g>
<g id="clust2" class="cluster">
<title>cluster_AppModule_declarations</title>
<polygon fill="none" stroke="black" points="3333,-192.8 3333,-244.8 3625,-244.8 3625,-192.8 3333,-192.8"/>
</g>
<g id="clust5" class="cluster">
<title>cluster_AppModule_imports</title>
<polygon fill="none" stroke="black" points="2948,-116.8 2948,-244.8 3325,-244.8 3325,-116.8 2948,-116.8"/>
</g>
<g id="clust7" class="cluster">
<title>cluster_AppModule_bootstrap</title>
<polygon fill="none" stroke="black" points="3228,-322.8 3228,-374.8 3352,-374.8 3352,-322.8 3228,-322.8"/>
</g>
<g id="clust15" class="cluster">
<title>cluster_AuthModule</title>
<polygon fill="none" stroke="black" stroke-dasharray="1,5" points="994,-108.8 994,-176.8 1747,-176.8 1747,-108.8 994,-108.8"/>
</g>
<g id="clust16" class="cluster">
<title>cluster_AuthModule_declarations</title>
<polygon fill="none" stroke="black" points="1002,-116.8 1002,-168.8 1739,-168.8 1739,-116.8 1002,-116.8"/>
</g>
<g id="clust26" class="cluster">
<title>cluster_BooksModule</title>
<polygon fill="none" stroke="black" stroke-dasharray="1,5" points="1755,-108.8 1755,-176.8 2932,-176.8 2932,-108.8 1755,-108.8"/>
</g>
<g id="clust27" class="cluster">
<title>cluster_BooksModule_declarations</title>
<polygon fill="none" stroke="black" points="1763,-116.8 1763,-168.8 2924,-168.8 2924,-116.8 1763,-116.8"/>
</g>
<g id="clust39" class="cluster">
<title>cluster_CoreModule</title>
<polygon fill="none" stroke="black" stroke-dasharray="1,5" points="8,-108.8 8,-176.8 986,-176.8 986,-108.8 8,-108.8"/>
</g>
<g id="clust40" class="cluster">
<title>cluster_CoreModule_declarations</title>
<polygon fill="none" stroke="black" points="442,-116.8 442,-168.8 978,-168.8 978,-116.8 442,-116.8"/>
</g>
<g id="clust46" class="cluster">
<title>cluster_CoreModule_exports</title>
<polygon fill="none" stroke="black" points="16,-116.8 16,-168.8 434,-168.8 434,-116.8 16,-116.8"/>
</g>
<g id="clust55" class="cluster">
<title>cluster_SearchModule</title>
<polygon fill="none" stroke="black" stroke-dasharray="1,5" points="2585,-32.8 2585,-100.8 3455,-100.8 3455,-32.8 2585,-32.8"/>
</g>
<g id="clust56" class="cluster">
<title>cluster_SearchModule_declarations</title>
<polygon fill="none" stroke="black" points="2915,-40.8 2915,-92.8 3447,-92.8 3447,-40.8 2915,-40.8"/>
</g>
<g id="clust60" class="cluster">
<title>cluster_SearchModule_imports</title>
<polygon fill="none" stroke="black" points="2785,-40.8 2785,-92.8 2907,-92.8 2907,-40.8 2785,-40.8"/>
</g>
<g id="clust61" class="cluster">
<title>cluster_SearchModule_exports</title>
<polygon fill="none" stroke="black" points="2593,-40.8 2593,-92.8 2777,-92.8 2777,-40.8 2593,-40.8"/>
</g>
<g id="clust64" class="cluster">
<title>cluster_SharedModule</title>
<polygon fill="none" stroke="black" stroke-dasharray="1,5" points="3641,-184.8 3641,-252.8 4354,-252.8 4354,-184.8 3641,-184.8"/>
</g>
<g id="clust65" class="cluster">
<title>cluster_SharedModule_declarations</title>
<polygon fill="none" stroke="black" points="4007,-192.8 4007,-244.8 4346,-244.8 4346,-192.8 4007,-192.8"/>
</g>
<g id="clust70" class="cluster">
<title>cluster_SharedModule_exports</title>
<polygon fill="none" stroke="black" points="3649,-192.8 3649,-244.8 3999,-244.8 3999,-192.8 3649,-192.8"/>
</g>
<!-- AppComponent -->
<g id="node1" class="node">
<title>AppComponent</title>
<polygon fill="#ffffb3" stroke="black" points="3616.94,-236.8 3511.06,-236.8 3511.06,-200.8 3616.94,-200.8 3616.94,-236.8"/>
<text text-anchor="middle" x="3564" y="-214.6" font-family="Times,serif" font-size="14.00">AppComponent</text>
</g>
<!-- AppModule -->
<g id="node3" class="node">
<title>AppModule</title>
<polygon fill="#8dd3c7" stroke="black" points="3331.66,-301.8 3328.66,-305.8 3307.66,-305.8 3304.66,-301.8 3248.34,-301.8 3248.34,-265.8 3331.66,-265.8 3331.66,-301.8"/>
<text text-anchor="middle" x="3290" y="-279.6" font-family="Times,serif" font-size="14.00">AppModule</text>
</g>
<!-- AppComponent&#45;&gt;AppModule -->
<g id="edge1" class="edge">
<title>AppComponent&#45;&gt;AppModule</title>
<path fill="none" stroke="black" d="M3564,-236.91C3564,-256.14 3564,-283.8 3564,-283.8 3564,-283.8 3341.91,-283.8 3341.91,-283.8"/>
<polygon fill="black" stroke="black" points="3341.91,-280.3 3331.91,-283.8 3341.91,-287.3 3341.91,-280.3"/>
</g>
<!-- AuthenticateComponent -->
<g id="node2" class="node">
<title>AuthenticateComponent</title>
<polygon fill="#ffffb3" stroke="black" points="3493.36,-236.8 3340.64,-236.8 3340.64,-200.8 3493.36,-200.8 3493.36,-236.8"/>
<text text-anchor="middle" x="3417" y="-214.6" font-family="Times,serif" font-size="14.00">AuthenticateComponent</text>
</g>
<!-- AuthenticateComponent&#45;&gt;AppModule -->
<g id="edge2" class="edge">
<title>AuthenticateComponent&#45;&gt;AppModule</title>
<path fill="none" stroke="black" d="M3340.63,-218.8C3331.05,-218.8 3324.52,-218.8 3324.52,-218.8 3324.52,-218.8 3324.52,-255.69 3324.52,-255.69"/>
<polygon fill="black" stroke="black" points="3321.02,-255.69 3324.52,-265.69 3328.02,-255.69 3321.02,-255.69"/>
</g>
<!-- AppComponent  -->
<g id="node10" class="node">
<title>AppComponent </title>
<polygon fill="#80b1d3" stroke="black" points="3344.44,-366.8 3235.56,-366.8 3235.56,-330.8 3344.44,-330.8 3344.44,-366.8"/>
<text text-anchor="middle" x="3290" y="-344.6" font-family="Times,serif" font-size="14.00">AppComponent </text>
</g>
<!-- AppModule&#45;&gt;AppComponent  -->
<g id="edge9" class="edge">
<title>AppModule&#45;&gt;AppComponent </title>
<path fill="none" stroke="black" stroke-dasharray="1,5" d="M3290,-301.91C3290,-301.91 3290,-320.79 3290,-320.79"/>
<polygon fill="black" stroke="black" points="3286.5,-320.79 3290,-330.79 3293.5,-320.79 3286.5,-320.79"/>
</g>
<!-- AppRoutingModule -->
<g id="node4" class="node">
<title>AppRoutingModule</title>
<polygon fill="#8dd3c7" stroke="black" points="3200.28,-160.8 3197.28,-164.8 3176.28,-164.8 3173.28,-160.8 3071.72,-160.8 3071.72,-124.8 3200.28,-124.8 3200.28,-160.8"/>
<text text-anchor="middle" x="3136" y="-138.6" font-family="Times,serif" font-size="14.00">AppRoutingModule</text>
</g>
<!-- AppRoutingModule&#45;&gt;AppModule -->
<g id="edge3" class="edge">
<title>AppRoutingModule&#45;&gt;AppModule</title>
<path fill="none" stroke="black" d="M3156.55,-161.01C3156.55,-197.01 3156.55,-273.8 3156.55,-273.8 3156.55,-273.8 3238.14,-273.8 3238.14,-273.8"/>
<polygon fill="black" stroke="black" points="3238.14,-277.3 3248.14,-273.8 3238.14,-270.3 3238.14,-277.3"/>
</g>
<!-- AuthModule -->
<g id="node5" class="node">
<title>AuthModule</title>
<polygon fill="#8dd3c7" stroke="black" points="3147.55,-236.8 3144.55,-240.8 3123.55,-240.8 3120.55,-236.8 3060.45,-236.8 3060.45,-200.8 3147.55,-200.8 3147.55,-236.8"/>
<text text-anchor="middle" x="3104" y="-214.6" font-family="Times,serif" font-size="14.00">AuthModule</text>
</g>
<!-- AuthModule&#45;&gt;AppModule -->
<g id="edge4" class="edge">
<title>AuthModule&#45;&gt;AppModule</title>
<path fill="none" stroke="black" d="M3104,-237.07C3104,-255.36 3104,-280.8 3104,-280.8 3104,-280.8 3238.26,-280.8 3238.26,-280.8"/>
<polygon fill="black" stroke="black" points="3238.26,-284.3 3248.26,-280.8 3238.26,-277.3 3238.26,-284.3"/>
</g>
<!-- BooksModule -->
<g id="node6" class="node">
<title>BooksModule</title>
<polygon fill="#8dd3c7" stroke="black" points="3260.84,-236.8 3257.84,-240.8 3236.84,-240.8 3233.84,-236.8 3165.16,-236.8 3165.16,-200.8 3260.84,-200.8 3260.84,-236.8"/>
<text text-anchor="middle" x="3213" y="-214.6" font-family="Times,serif" font-size="14.00">BooksModule</text>
</g>
<!-- BooksModule&#45;&gt;AppModule -->
<g id="edge5" class="edge">
<title>BooksModule&#45;&gt;AppModule</title>
<path fill="none" stroke="black" d="M3254.42,-236.91C3254.42,-236.91 3254.42,-255.79 3254.42,-255.79"/>
<polygon fill="black" stroke="black" points="3250.92,-255.79 3254.42,-265.79 3257.92,-255.79 3250.92,-255.79"/>
</g>
<!-- CoreModule -->
<g id="node7" class="node">
<title>CoreModule</title>
<polygon fill="#8dd3c7" stroke="black" points="3042.27,-236.8 3039.27,-240.8 3018.27,-240.8 3015.27,-236.8 2955.73,-236.8 2955.73,-200.8 3042.27,-200.8 3042.27,-236.8"/>
<text text-anchor="middle" x="2999" y="-214.6" font-family="Times,serif" font-size="14.00">CoreModule</text>
</g>
<!-- CoreModule&#45;&gt;AppModule -->
<g id="edge6" class="edge">
<title>CoreModule&#45;&gt;AppModule</title>
<path fill="none" stroke="black" d="M2999,-236.81C2999,-259.29 2999,-294.8 2999,-294.8 2999,-294.8 3238.31,-294.8 3238.31,-294.8"/>
<polygon fill="black" stroke="black" points="3238.31,-298.3 3248.31,-294.8 3238.31,-291.3 3238.31,-298.3"/>
</g>
<!-- FooterComponent  -->
<g id="node27" class="node">
<title>FooterComponent </title>
<polygon fill="#fb8072" stroke="black" points="425.88,-160.8 304.12,-160.8 304.12,-124.8 425.88,-124.8 425.88,-160.8"/>
<text text-anchor="middle" x="365" y="-138.6" font-family="Times,serif" font-size="14.00">FooterComponent </text>
</g>
<!-- CoreModule&#45;&gt;FooterComponent  -->
<g id="edge29" class="edge">
<title>CoreModule&#45;&gt;FooterComponent </title>
<path fill="none" stroke="black" stroke-dasharray="5,2" d="M2955.48,-223.8C2613.01,-223.8 365,-223.8 365,-223.8 365,-223.8 365,-171.18 365,-171.18"/>
<polygon fill="black" stroke="black" points="368.5,-171.18 365,-161.18 361.5,-171.18 368.5,-171.18"/>
</g>
<!-- HeaderComponent  -->
<g id="node28" class="node">
<title>HeaderComponent </title>
<polygon fill="#fb8072" stroke="black" points="286.75,-160.8 161.25,-160.8 161.25,-124.8 286.75,-124.8 286.75,-160.8"/>
<text text-anchor="middle" x="224" y="-138.6" font-family="Times,serif" font-size="14.00">HeaderComponent </text>
</g>
<!-- CoreModule&#45;&gt;HeaderComponent  -->
<g id="edge30" class="edge">
<title>CoreModule&#45;&gt;HeaderComponent </title>
<path fill="none" stroke="black" stroke-dasharray="5,2" d="M2955.69,-227.8C2603.63,-227.8 224,-227.8 224,-227.8 224,-227.8 224,-170.83 224,-170.83"/>
<polygon fill="black" stroke="black" points="227.5,-170.83 224,-160.83 220.5,-170.83 227.5,-170.83"/>
</g>
<!-- HomeComponent  -->
<g id="node29" class="node">
<title>HomeComponent </title>
<polygon fill="#fb8072" stroke="black" points="143.54,-160.8 24.46,-160.8 24.46,-124.8 143.54,-124.8 143.54,-160.8"/>
<text text-anchor="middle" x="84" y="-138.6" font-family="Times,serif" font-size="14.00">HomeComponent </text>
</g>
<!-- CoreModule&#45;&gt;HomeComponent  -->
<g id="edge31" class="edge">
<title>CoreModule&#45;&gt;HomeComponent </title>
<path fill="none" stroke="black" stroke-dasharray="5,2" d="M2955.53,-232.8C2592.91,-232.8 84,-232.8 84,-232.8 84,-232.8 84,-171.01 84,-171.01"/>
<polygon fill="black" stroke="black" points="87.5,-171.01 84,-161.01 80.5,-171.01 87.5,-171.01"/>
</g>
<!-- SearchModule -->
<g id="node8" class="node">
<title>SearchModule</title>
<polygon fill="#8dd3c7" stroke="black" points="3053.64,-160.8 3050.64,-164.8 3029.64,-164.8 3026.64,-160.8 2956.36,-160.8 2956.36,-124.8 3053.64,-124.8 3053.64,-160.8"/>
<text text-anchor="middle" x="3005" y="-138.6" font-family="Times,serif" font-size="14.00">SearchModule</text>
</g>
<!-- SearchModule&#45;&gt;AppModule -->
<g id="edge7" class="edge">
<title>SearchModule&#45;&gt;AppModule</title>
<path fill="none" stroke="black" d="M3048.1,-160.87C3048.1,-199.74 3048.1,-287.8 3048.1,-287.8 3048.1,-287.8 3238.14,-287.8 3238.14,-287.8"/>
<polygon fill="black" stroke="black" points="3238.14,-291.3 3248.14,-287.8 3238.14,-284.3 3238.14,-291.3"/>
</g>
<!-- SearchModule&#45;&gt;CoreModule -->
<g id="edge28" class="edge">
<title>SearchModule&#45;&gt;CoreModule</title>
<path fill="none" stroke="black" d="M2999.28,-160.81C2999.28,-160.81 2999.28,-190.65 2999.28,-190.65"/>
<polygon fill="black" stroke="black" points="2995.78,-190.65 2999.28,-200.65 3002.78,-190.65 2995.78,-190.65"/>
</g>
<!-- SearchContentComponent  -->
<g id="node34" class="node">
<title>SearchContentComponent </title>
<polygon fill="#fb8072" stroke="black" points="2768.75,-84.8 2601.25,-84.8 2601.25,-48.8 2768.75,-48.8 2768.75,-84.8"/>
<text text-anchor="middle" x="2685" y="-62.6" font-family="Times,serif" font-size="14.00">SearchContentComponent </text>
</g>
<!-- SearchModule&#45;&gt;SearchContentComponent  -->
<g id="edge36" class="edge">
<title>SearchModule&#45;&gt;SearchContentComponent </title>
<path fill="none" stroke="black" stroke-dasharray="5,2" d="M2975.71,-124.65C2975.71,-111.06 2975.71,-94.8 2975.71,-94.8 2975.71,-94.8 2758.7,-94.8 2758.7,-94.8 2758.7,-94.8 2758.7,-93.82 2758.7,-93.82"/>
<polygon fill="black" stroke="black" points="2762.2,-95.01 2758.7,-85.01 2755.2,-95.01 2762.2,-95.01"/>
</g>
<!-- SharedModule -->
<g id="node9" class="node">
<title>SharedModule</title>
<polygon fill="#8dd3c7" stroke="black" points="3317.43,-160.8 3314.43,-164.8 3293.43,-164.8 3290.43,-160.8 3218.57,-160.8 3218.57,-124.8 3317.43,-124.8 3317.43,-160.8"/>
<text text-anchor="middle" x="3268" y="-138.6" font-family="Times,serif" font-size="14.00">SharedModule</text>
</g>
<!-- SharedModule&#45;&gt;AppModule -->
<g id="edge8" class="edge">
<title>SharedModule&#45;&gt;AppModule</title>
<path fill="none" stroke="black" d="M3288.94,-160.94C3288.94,-160.94 3288.94,-255.73 3288.94,-255.73"/>
<polygon fill="black" stroke="black" points="3285.44,-255.72 3288.94,-265.73 3292.44,-255.73 3285.44,-255.72"/>
</g>
<!-- SharedModule&#45;&gt;AuthModule -->
<g id="edge15" class="edge">
<title>SharedModule&#45;&gt;AuthModule</title>
<path fill="none" stroke="black" d="M3232.75,-160.83C3232.75,-177.2 3232.75,-198.8 3232.75,-198.8 3232.75,-198.8 3136.9,-198.8 3136.9,-198.8 3136.9,-198.8 3136.9,-198.98 3136.9,-198.98"/>
<polygon fill="black" stroke="black" points="3133.4,-190.65 3136.9,-200.65 3140.4,-190.65 3133.4,-190.65"/>
</g>
<!-- SharedModule&#45;&gt;BooksModule -->
<g id="edge23" class="edge">
<title>SharedModule&#45;&gt;BooksModule</title>
<path fill="none" stroke="black" d="M3246.71,-160.81C3246.71,-160.81 3246.71,-190.65 3246.71,-190.65"/>
<polygon fill="black" stroke="black" points="3243.21,-190.65 3246.71,-200.65 3250.21,-190.65 3243.21,-190.65"/>
</g>
<!-- DelayDirective  -->
<g id="node38" class="node">
<title>DelayDirective </title>
<polygon fill="#fb8072" stroke="black" points="3990.51,-236.8 3885.49,-236.8 3885.49,-200.8 3990.51,-200.8 3990.51,-236.8"/>
<text text-anchor="middle" x="3938" y="-214.6" font-family="Times,serif" font-size="14.00">DelayDirective </text>
</g>
<!-- SharedModule&#45;&gt;DelayDirective  -->
<g id="edge40" class="edge">
<title>SharedModule&#45;&gt;DelayDirective </title>
<path fill="none" stroke="black" stroke-dasharray="5,2" d="M3317.27,-145.8C3471.99,-145.8 3938,-145.8 3938,-145.8 3938,-145.8 3938,-190.76 3938,-190.76"/>
<polygon fill="black" stroke="black" points="3934.5,-190.76 3938,-200.76 3941.5,-190.76 3934.5,-190.76"/>
</g>
<!-- IsbnPipe  -->
<g id="node39" class="node">
<title>IsbnPipe </title>
<polygon fill="#fb8072" stroke="black" points="3867,-236.8 3799,-236.8 3799,-200.8 3867,-200.8 3867,-236.8"/>
<text text-anchor="middle" x="3833" y="-214.6" font-family="Times,serif" font-size="14.00">IsbnPipe </text>
</g>
<!-- SharedModule&#45;&gt;IsbnPipe  -->
<g id="edge41" class="edge">
<title>SharedModule&#45;&gt;IsbnPipe </title>
<path fill="none" stroke="black" stroke-dasharray="5,2" d="M3317.64,-150.8C3455.52,-150.8 3833,-150.8 3833,-150.8 3833,-150.8 3833,-190.58 3833,-190.58"/>
<polygon fill="black" stroke="black" points="3829.5,-190.58 3833,-200.58 3836.5,-190.58 3829.5,-190.58"/>
</g>
<!-- LoaderComponent  -->
<g id="node40" class="node">
<title>LoaderComponent </title>
<polygon fill="#fb8072" stroke="black" points="3781.47,-236.8 3656.53,-236.8 3656.53,-200.8 3781.47,-200.8 3781.47,-236.8"/>
<text text-anchor="middle" x="3719" y="-214.6" font-family="Times,serif" font-size="14.00">LoaderComponent </text>
</g>
<!-- SharedModule&#45;&gt;LoaderComponent  -->
<g id="edge42" class="edge">
<title>SharedModule&#45;&gt;LoaderComponent </title>
<path fill="none" stroke="black" stroke-dasharray="5,2" d="M3317.55,-155.8C3434.71,-155.8 3719,-155.8 3719,-155.8 3719,-155.8 3719,-190.58 3719,-190.58"/>
<polygon fill="black" stroke="black" points="3715.5,-190.58 3719,-200.58 3722.5,-190.58 3715.5,-190.58"/>
</g>
<!-- LoginComponent -->
<g id="node11" class="node">
<title>LoginComponent</title>
<polygon fill="#ffffb3" stroke="black" points="1585.27,-160.8 1470.73,-160.8 1470.73,-124.8 1585.27,-124.8 1585.27,-160.8"/>
<text text-anchor="middle" x="1528" y="-138.6" font-family="Times,serif" font-size="14.00">LoginComponent</text>
</g>
<!-- LoginComponent&#45;&gt;AuthModule -->
<g id="edge10" class="edge">
<title>LoginComponent&#45;&gt;AuthModule</title>
<path fill="none" stroke="black" d="M1528,-160.95C1528,-173.07 1528,-186.8 1528,-186.8 1528,-186.8 3115.13,-186.8 3115.13,-186.8 3115.13,-186.8 3115.13,-190.56 3115.13,-190.56"/>
<polygon fill="black" stroke="black" points="3111.63,-190.56 3115.13,-200.56 3118.63,-190.56 3111.63,-190.56"/>
</g>
<!-- LogoutComponent -->
<g id="node12" class="node">
<title>LogoutComponent</title>
<polygon fill="#ffffb3" stroke="black" points="1452.77,-160.8 1331.23,-160.8 1331.23,-124.8 1452.77,-124.8 1452.77,-160.8"/>
<text text-anchor="middle" x="1392" y="-138.6" font-family="Times,serif" font-size="14.00">LogoutComponent</text>
</g>
<!-- LogoutComponent&#45;&gt;AuthModule -->
<g id="edge11" class="edge">
<title>LogoutComponent&#45;&gt;AuthModule</title>
<path fill="none" stroke="black" d="M1392,-160.84C1392,-174.09 1392,-189.8 1392,-189.8 1392,-189.8 3104.25,-189.8 3104.25,-189.8 3104.25,-189.8 3104.25,-190.88 3104.25,-190.88"/>
<polygon fill="black" stroke="black" points="3100.75,-190.6 3104.25,-200.6 3107.75,-190.6 3100.75,-190.6"/>
</g>
<!-- PageNotFoundComponent -->
<g id="node13" class="node">
<title>PageNotFoundComponent</title>
<polygon fill="#ffffb3" stroke="black" points="1312.83,-160.8 1147.17,-160.8 1147.17,-124.8 1312.83,-124.8 1312.83,-160.8"/>
<text text-anchor="middle" x="1230" y="-138.6" font-family="Times,serif" font-size="14.00">PageNotFoundComponent</text>
</g>
<!-- PageNotFoundComponent&#45;&gt;AuthModule -->
<g id="edge12" class="edge">
<title>PageNotFoundComponent&#45;&gt;AuthModule</title>
<path fill="none" stroke="black" d="M1230,-160.85C1230,-175.17 1230,-192.8 1230,-192.8 1230,-192.8 3093.37,-192.8 3093.37,-192.8 3093.37,-192.8 3093.37,-193.59 3093.37,-193.59"/>
<polygon fill="black" stroke="black" points="3089.87,-190.74 3093.37,-200.74 3096.87,-190.74 3089.87,-190.74"/>
</g>
<!-- ProfileComponent -->
<g id="node14" class="node">
<title>ProfileComponent</title>
<polygon fill="#ffffb3" stroke="black" points="1129.94,-160.8 1010.06,-160.8 1010.06,-124.8 1129.94,-124.8 1129.94,-160.8"/>
<text text-anchor="middle" x="1070" y="-138.6" font-family="Times,serif" font-size="14.00">ProfileComponent</text>
</g>
<!-- ProfileComponent&#45;&gt;AuthModule -->
<g id="edge13" class="edge">
<title>ProfileComponent&#45;&gt;AuthModule</title>
<path fill="none" stroke="black" d="M1070,-161.04C1070,-176.37 1070,-195.8 1070,-195.8 1070,-195.8 3082.49,-195.8 3082.49,-195.8 3082.49,-195.8 3082.49,-196.29 3082.49,-196.29"/>
<polygon fill="black" stroke="black" points="3078.99,-190.68 3082.49,-200.68 3085.99,-190.68 3078.99,-190.68"/>
</g>
<!-- RegisterComponent -->
<g id="node15" class="node">
<title>RegisterComponent</title>
<polygon fill="#ffffb3" stroke="black" points="1730.99,-160.8 1603.01,-160.8 1603.01,-124.8 1730.99,-124.8 1730.99,-160.8"/>
<text text-anchor="middle" x="1667" y="-138.6" font-family="Times,serif" font-size="14.00">RegisterComponent</text>
</g>
<!-- RegisterComponent&#45;&gt;AuthModule -->
<g id="edge14" class="edge">
<title>RegisterComponent&#45;&gt;AuthModule</title>
<path fill="none" stroke="black" d="M1667,-160.9C1667,-171.89 1667,-183.8 1667,-183.8 1667,-183.8 3126.01,-183.8 3126.01,-183.8 3126.01,-183.8 3126.01,-190.48 3126.01,-190.48"/>
<polygon fill="black" stroke="black" points="3122.51,-190.48 3126.01,-200.48 3129.51,-190.48 3122.51,-190.48"/>
</g>
<!-- BookDetailsComponent -->
<g id="node16" class="node">
<title>BookDetailsComponent</title>
<polygon fill="#ffffb3" stroke="black" points="2411.82,-160.8 2260.18,-160.8 2260.18,-124.8 2411.82,-124.8 2411.82,-160.8"/>
<text text-anchor="middle" x="2336" y="-138.6" font-family="Times,serif" font-size="14.00">BookDetailsComponent</text>
</g>
<!-- BookDetailsComponent&#45;&gt;BooksModule -->
<g id="edge16" class="edge">
<title>BookDetailsComponent&#45;&gt;BooksModule</title>
<path fill="none" stroke="black" d="M2336,-160.94C2336,-167.26 2336,-172.8 2336,-172.8 2336,-172.8 3182.86,-172.8 3182.86,-172.8 3182.86,-172.8 3182.86,-190.62 3182.86,-190.62"/>
<polygon fill="black" stroke="black" points="3179.36,-190.62 3182.86,-200.62 3186.36,-190.62 3179.36,-190.62"/>
</g>
<!-- BookFormComponent -->
<g id="node17" class="node">
<title>BookFormComponent</title>
<polygon fill="#ffffb3" stroke="black" points="2242.01,-160.8 2099.99,-160.8 2099.99,-124.8 2242.01,-124.8 2242.01,-160.8"/>
<text text-anchor="middle" x="2171" y="-138.6" font-family="Times,serif" font-size="14.00">BookFormComponent</text>
</g>
<!-- BookFormComponent&#45;&gt;BooksModule -->
<g id="edge17" class="edge">
<title>BookFormComponent&#45;&gt;BooksModule</title>
<path fill="none" stroke="black" d="M2171,-160.84C2171,-168.55 2171,-175.8 2171,-175.8 2171,-175.8 3178.48,-175.8 3178.48,-175.8 3178.48,-175.8 3178.48,-190.31 3178.48,-190.31"/>
<polygon fill="black" stroke="black" points="3174.98,-190.31 3178.48,-200.31 3181.98,-190.31 3174.98,-190.31"/>
</g>
<!-- BookListComponent -->
<g id="node18" class="node">
<title>BookListComponent</title>
<polygon fill="#ffffb3" stroke="black" points="2081.95,-160.8 1948.05,-160.8 1948.05,-124.8 2081.95,-124.8 2081.95,-160.8"/>
<text text-anchor="middle" x="2015" y="-138.6" font-family="Times,serif" font-size="14.00">BookListComponent</text>
</g>
<!-- BookListComponent&#45;&gt;BooksModule -->
<g id="edge18" class="edge">
<title>BookListComponent&#45;&gt;BooksModule</title>
<path fill="none" stroke="black" d="M2015,-161.22C2015,-170.08 2015,-178.8 2015,-178.8 2015,-178.8 3174.1,-178.8 3174.1,-178.8 3174.1,-178.8 3174.1,-190.67 3174.1,-190.67"/>
<polygon fill="black" stroke="black" points="3170.6,-190.67 3174.1,-200.67 3177.6,-190.67 3170.6,-190.67"/>
</g>
<!-- BookListItemComponent -->
<g id="node19" class="node">
<title>BookListItemComponent</title>
<polygon fill="#ffffb3" stroke="black" points="1930.6,-160.8 1771.4,-160.8 1771.4,-124.8 1930.6,-124.8 1930.6,-160.8"/>
<text text-anchor="middle" x="1851" y="-138.6" font-family="Times,serif" font-size="14.00">BookListItemComponent</text>
</g>
<!-- BookListItemComponent&#45;&gt;BooksModule -->
<g id="edge19" class="edge">
<title>BookListItemComponent&#45;&gt;BooksModule</title>
<path fill="none" stroke="black" d="M1851,-160.91C1851,-170.7 1851,-180.8 1851,-180.8 1851,-180.8 3169.71,-180.8 3169.71,-180.8 3169.71,-180.8 3169.71,-190.69 3169.71,-190.69"/>
<polygon fill="black" stroke="black" points="3166.21,-190.69 3169.71,-200.69 3173.21,-190.69 3166.21,-190.69"/>
</g>
<!-- CreateBookComponent -->
<g id="node20" class="node">
<title>CreateBookComponent</title>
<polygon fill="#ffffb3" stroke="black" points="2916.2,-160.8 2767.8,-160.8 2767.8,-124.8 2916.2,-124.8 2916.2,-160.8"/>
<text text-anchor="middle" x="2842" y="-138.6" font-family="Times,serif" font-size="14.00">CreateBookComponent</text>
</g>
<!-- CreateBookComponent&#45;&gt;BooksModule -->
<g id="edge20" class="edge">
<title>CreateBookComponent&#45;&gt;BooksModule</title>
<path fill="none" stroke="black" d="M2842,-160.88C2842,-162.65 2842,-163.8 2842,-163.8 2842,-163.8 3196.01,-163.8 3196.01,-163.8 3196.01,-163.8 3196.01,-190.79 3196.01,-190.79"/>
<polygon fill="black" stroke="black" points="3192.51,-190.79 3196.01,-200.79 3199.51,-190.79 3192.51,-190.79"/>
</g>
<!-- EditBookComponent -->
<g id="node21" class="node">
<title>EditBookComponent</title>
<polygon fill="#ffffb3" stroke="black" points="2749.5,-160.8 2614.5,-160.8 2614.5,-124.8 2749.5,-124.8 2749.5,-160.8"/>
<text text-anchor="middle" x="2682" y="-138.6" font-family="Times,serif" font-size="14.00">EditBookComponent</text>
</g>
<!-- EditBookComponent&#45;&gt;BooksModule -->
<g id="edge21" class="edge">
<title>EditBookComponent&#45;&gt;BooksModule</title>
<path fill="none" stroke="black" d="M2682,-160.99C2682,-164.34 2682,-166.8 2682,-166.8 2682,-166.8 3191.62,-166.8 3191.62,-166.8 3191.62,-166.8 3191.62,-190.61 3191.62,-190.61"/>
<polygon fill="black" stroke="black" points="3188.13,-190.61 3191.62,-200.61 3195.13,-190.61 3188.13,-190.61"/>
</g>
<!-- FormMessagesComponent -->
<g id="node22" class="node">
<title>FormMessagesComponent</title>
<polygon fill="#ffffb3" stroke="black" points="2596.1,-160.8 2429.9,-160.8 2429.9,-124.8 2596.1,-124.8 2596.1,-160.8"/>
<text text-anchor="middle" x="2513" y="-138.6" font-family="Times,serif" font-size="14.00">FormMessagesComponent</text>
</g>
<!-- FormMessagesComponent&#45;&gt;BooksModule -->
<g id="edge22" class="edge">
<title>FormMessagesComponent&#45;&gt;BooksModule</title>
<path fill="none" stroke="black" d="M2513,-160.96C2513,-165.84 2513,-169.8 2513,-169.8 2513,-169.8 3187.24,-169.8 3187.24,-169.8 3187.24,-169.8 3187.24,-190.55 3187.24,-190.55"/>
<polygon fill="black" stroke="black" points="3183.74,-190.55 3187.24,-200.55 3190.74,-190.55 3183.74,-190.55"/>
</g>
<!-- ErrorComponent -->
<g id="node23" class="node">
<title>ErrorComponent</title>
<polygon fill="#ffffb3" stroke="black" points="696.37,-160.8 585.63,-160.8 585.63,-124.8 696.37,-124.8 696.37,-160.8"/>
<text text-anchor="middle" x="641" y="-138.6" font-family="Times,serif" font-size="14.00">ErrorComponent</text>
</g>
<!-- ErrorComponent&#45;&gt;CoreModule -->
<g id="edge24" class="edge">
<title>ErrorComponent&#45;&gt;CoreModule</title>
<path fill="none" stroke="black" d="M641,-160.97C641,-182.3 641,-214.8 641,-214.8 641,-214.8 2945.55,-214.8 2945.55,-214.8"/>
<polygon fill="black" stroke="black" points="2945.55,-218.3 2955.55,-214.8 2945.55,-211.3 2945.55,-218.3"/>
</g>
<!-- FooterComponent -->
<g id="node24" class="node">
<title>FooterComponent</title>
<polygon fill="#ffffb3" stroke="black" points="567.88,-160.8 450.12,-160.8 450.12,-124.8 567.88,-124.8 567.88,-160.8"/>
<text text-anchor="middle" x="509" y="-138.6" font-family="Times,serif" font-size="14.00">FooterComponent</text>
</g>
<!-- FooterComponent&#45;&gt;CoreModule -->
<g id="edge25" class="edge">
<title>FooterComponent&#45;&gt;CoreModule</title>
<path fill="none" stroke="black" d="M509,-160.81C509,-183.29 509,-218.8 509,-218.8 509,-218.8 2945.52,-218.8 2945.52,-218.8"/>
<polygon fill="black" stroke="black" points="2945.52,-222.3 2955.52,-218.8 2945.52,-215.3 2945.52,-222.3"/>
</g>
<!-- HeaderComponent -->
<g id="node25" class="node">
<title>HeaderComponent</title>
<polygon fill="#ffffb3" stroke="black" points="969.75,-160.8 848.25,-160.8 848.25,-124.8 969.75,-124.8 969.75,-160.8"/>
<text text-anchor="middle" x="909" y="-138.6" font-family="Times,serif" font-size="14.00">HeaderComponent</text>
</g>
<!-- HeaderComponent&#45;&gt;CoreModule -->
<g id="edge26" class="edge">
<title>HeaderComponent&#45;&gt;CoreModule</title>
<path fill="none" stroke="black" d="M909,-161.02C909,-179.63 909,-205.8 909,-205.8 909,-205.8 2945.35,-205.8 2945.35,-205.8"/>
<polygon fill="black" stroke="black" points="2945.35,-209.3 2955.35,-205.8 2945.35,-202.3 2945.35,-209.3"/>
</g>
<!-- HomeComponent -->
<g id="node26" class="node">
<title>HomeComponent</title>
<polygon fill="#ffffb3" stroke="black" points="829.55,-160.8 714.45,-160.8 714.45,-124.8 829.55,-124.8 829.55,-160.8"/>
<text text-anchor="middle" x="772" y="-138.6" font-family="Times,serif" font-size="14.00">HomeComponent</text>
</g>
<!-- HomeComponent&#45;&gt;CoreModule -->
<g id="edge27" class="edge">
<title>HomeComponent&#45;&gt;CoreModule</title>
<path fill="none" stroke="black" d="M772,-161.11C772,-180.95 772,-209.8 772,-209.8 772,-209.8 2945.51,-209.8 2945.51,-209.8"/>
<polygon fill="black" stroke="black" points="2945.51,-213.3 2955.51,-209.8 2945.51,-206.3 2945.51,-213.3"/>
</g>
<!-- SearchApiComponent -->
<g id="node30" class="node">
<title>SearchApiComponent</title>
<polygon fill="#ffffb3" stroke="black" points="3439.42,-84.8 3298.58,-84.8 3298.58,-48.8 3439.42,-48.8 3439.42,-84.8"/>
<text text-anchor="middle" x="3369" y="-62.6" font-family="Times,serif" font-size="14.00">SearchApiComponent</text>
</g>
<!-- SearchApiComponent&#45;&gt;SearchModule -->
<g id="edge32" class="edge">
<title>SearchApiComponent&#45;&gt;SearchModule</title>
<path fill="none" stroke="black" d="M3308,-84.95C3308,-98.54 3308,-114.8 3308,-114.8 3308,-114.8 3034.29,-114.8 3034.29,-114.8 3034.29,-114.8 3034.29,-115.78 3034.29,-115.78"/>
<polygon fill="black" stroke="black" points="3030.79,-114.59 3034.29,-124.59 3037.79,-114.59 3030.79,-114.59"/>
</g>
<!-- SearchBookItemComponent -->
<g id="node31" class="node">
<title>SearchBookItemComponent</title>
<polygon fill="#ffffb3" stroke="black" points="3280.91,-84.8 3105.09,-84.8 3105.09,-48.8 3280.91,-48.8 3280.91,-84.8"/>
<text text-anchor="middle" x="3193" y="-62.6" font-family="Times,serif" font-size="14.00">SearchBookItemComponent</text>
</g>
<!-- SearchBookItemComponent&#45;&gt;SearchModule -->
<g id="edge33" class="edge">
<title>SearchBookItemComponent&#45;&gt;SearchModule</title>
<path fill="none" stroke="black" d="M3152.84,-84.91C3152.84,-94.7 3152.84,-104.8 3152.84,-104.8 3152.84,-104.8 3014.76,-104.8 3014.76,-104.8 3014.76,-104.8 3014.76,-114.69 3014.76,-114.69"/>
<polygon fill="black" stroke="black" points="3011.26,-114.69 3014.76,-124.69 3018.26,-114.69 3011.26,-114.69"/>
</g>
<!-- SearchContentComponent -->
<g id="node32" class="node">
<title>SearchContentComponent</title>
<polygon fill="#ffffb3" stroke="black" points="3086.75,-84.8 2923.25,-84.8 2923.25,-48.8 3086.75,-48.8 3086.75,-84.8"/>
<text text-anchor="middle" x="3005" y="-62.6" font-family="Times,serif" font-size="14.00">SearchContentComponent</text>
</g>
<!-- SearchContentComponent&#45;&gt;SearchModule -->
<g id="edge34" class="edge">
<title>SearchContentComponent&#45;&gt;SearchModule</title>
<path fill="none" stroke="black" d="M2995.24,-84.81C2995.24,-84.81 2995.24,-114.65 2995.24,-114.65"/>
<polygon fill="black" stroke="black" points="2991.74,-114.65 2995.24,-124.65 2998.74,-114.65 2991.74,-114.65"/>
</g>
<!-- MaterialModule -->
<g id="node33" class="node">
<title>MaterialModule</title>
<polygon fill="#8dd3c7" stroke="black" points="2899.47,-84.8 2896.47,-88.8 2875.47,-88.8 2872.47,-84.8 2792.53,-84.8 2792.53,-48.8 2899.47,-48.8 2899.47,-84.8"/>
<text text-anchor="middle" x="2846" y="-62.6" font-family="Times,serif" font-size="14.00">MaterialModule</text>
</g>
<!-- MaterialModule&#45;&gt;SearchModule -->
<g id="edge35" class="edge">
<title>MaterialModule&#45;&gt;SearchModule</title>
<path fill="none" stroke="black" d="M2899.5,-66.8C2910.91,-66.8 2919.61,-66.8 2919.61,-66.8 2919.61,-66.8 2919.61,-142.8 2919.61,-142.8 2919.61,-142.8 2946.32,-142.8 2946.32,-142.8"/>
<polygon fill="black" stroke="black" points="2946.32,-146.3 2956.32,-142.8 2946.32,-139.3 2946.32,-146.3"/>
</g>
<!-- DelayDirective -->
<g id="node35" class="node">
<title>DelayDirective</title>
<polygon fill="#ffffb3" stroke="black" points="4337.51,-236.8 4236.49,-236.8 4236.49,-200.8 4337.51,-200.8 4337.51,-236.8"/>
<text text-anchor="middle" x="4287" y="-214.6" font-family="Times,serif" font-size="14.00">DelayDirective</text>
</g>
<!-- DelayDirective&#45;&gt;SharedModule -->
<g id="edge37" class="edge">
<title>DelayDirective&#45;&gt;SharedModule</title>
<path fill="none" stroke="black" d="M4287,-200.57C4287,-174.79 4287,-130.8 4287,-130.8 4287,-130.8 3327.49,-130.8 3327.49,-130.8"/>
<polygon fill="black" stroke="black" points="3327.49,-127.3 3317.49,-130.8 3327.49,-134.3 3327.49,-127.3"/>
</g>
<!-- IsbnPipe -->
<g id="node36" class="node">
<title>IsbnPipe</title>
<polygon fill="#ffffb3" stroke="black" points="4218.5,-236.8 4153.5,-236.8 4153.5,-200.8 4218.5,-200.8 4218.5,-236.8"/>
<text text-anchor="middle" x="4186" y="-214.6" font-family="Times,serif" font-size="14.00">IsbnPipe</text>
</g>
<!-- IsbnPipe&#45;&gt;SharedModule -->
<g id="edge38" class="edge">
<title>IsbnPipe&#45;&gt;SharedModule</title>
<path fill="none" stroke="black" d="M4186,-200.79C4186,-176.38 4186,-135.8 4186,-135.8 4186,-135.8 3327.36,-135.8 3327.36,-135.8"/>
<polygon fill="black" stroke="black" points="3327.36,-132.3 3317.36,-135.8 3327.36,-139.3 3327.36,-132.3"/>
</g>
<!-- LoaderComponent -->
<g id="node37" class="node">
<title>LoaderComponent</title>
<polygon fill="#ffffb3" stroke="black" points="4135.47,-236.8 4014.53,-236.8 4014.53,-200.8 4135.47,-200.8 4135.47,-236.8"/>
<text text-anchor="middle" x="4075" y="-214.6" font-family="Times,serif" font-size="14.00">LoaderComponent</text>
</g>
<!-- LoaderComponent&#45;&gt;SharedModule -->
<g id="edge39" class="edge">
<title>LoaderComponent&#45;&gt;SharedModule</title>
<path fill="none" stroke="black" d="M4075,-200.71C4075,-177.67 4075,-140.8 4075,-140.8 4075,-140.8 3327.27,-140.8 3327.27,-140.8"/>
<polygon fill="black" stroke="black" points="3327.27,-137.3 3317.27,-140.8 3327.27,-144.3 3327.27,-137.3"/>
</g>
</g>
</svg>
