<?xml version="1.0" encoding="UTF-8" standalone="no"?>
<!DOCTYPE svg PUBLIC "-//W3C//DTD SVG 1.1//EN"
 "http://www.w3.org/Graphics/SVG/1.1/DTD/svg11.dtd">
<!-- Generated by graphviz version 5.0.0 (20220707.1540)
 -->
<!-- Title: dependencies Pages: 1 -->
<svg width="1323pt" height="174pt"
 viewBox="0.00 0.00 1323.00 173.80" xmlns="http://www.w3.org/2000/svg" xmlns:xlink="http://www.w3.org/1999/xlink">
<g id="graph0" class="graph" transform="scale(1 1) rotate(0) translate(4 169.8)">
<title>dependencies</title>
<polygon fill="white" stroke="transparent" points="-4,4 -4,-169.8 1319,-169.8 1319,4 -4,4"/>
<text text-anchor="middle" x="657.5" y="-8.2" font-family="sans-serif" font-size="14.00">dependencies</text>
<g id="clust1" class="cluster">
<title>cluster_BooksModule</title>
<polygon fill="none" stroke="black" stroke-dasharray="1,5" points="8,-32.8 8,-157.8 1307,-157.8 1307,-32.8 8,-32.8"/>
</g>
<g id="clust10" class="cluster">
<title>cluster_BooksModule_imports</title>
<polygon fill="none" stroke="black" points="1185,-40.8 1185,-92.8 1299,-92.8 1299,-40.8 1185,-40.8"/>
</g>
<g id="clust2" class="cluster">
<title>cluster_BooksModule_declarations</title>
<polygon fill="none" stroke="black" points="16,-40.8 16,-92.8 1177,-92.8 1177,-40.8 16,-40.8"/>
</g>
<!-- BookDetailsComponent -->
<g id="node1" class="node">
<title>BookDetailsComponent</title>
<polygon fill="#ffffb3" stroke="black" points="1168.82,-84.8 1017.18,-84.8 1017.18,-48.8 1168.82,-48.8 1168.82,-84.8"/>
<text text-anchor="middle" x="1093" y="-62.6" font-family="Times,serif" font-size="14.00">BookDetailsComponent</text>
</g>
<!-- BooksModule -->
<g id="node8" class="node">
<title>BooksModule</title>
<polygon fill="#8dd3c7" stroke="black" points="737.84,-149.8 734.84,-153.8 713.84,-153.8 710.84,-149.8 642.16,-149.8 642.16,-113.8 737.84,-113.8 737.84,-149.8"/>
<text text-anchor="middle" x="690" y="-127.6" font-family="Times,serif" font-size="14.00">BooksModule</text>
</g>
<!-- BookDetailsComponent&#45;&gt;BooksModule -->
<g id="edge1" class="edge">
<title>BookDetailsComponent&#45;&gt;BooksModule</title>
<path fill="none" stroke="black" d="M1093,-84.91C1093,-104.14 1093,-131.8 1093,-131.8 1093,-131.8 747.81,-131.8 747.81,-131.8"/>
<polygon fill="black" stroke="black" points="747.81,-128.3 737.81,-131.8 747.81,-135.3 747.81,-128.3"/>
</g>
<!-- BookFormComponent -->
<g id="node2" class="node">
<title>BookFormComponent</title>
<polygon fill="#ffffb3" stroke="black" points="999.01,-84.8 856.99,-84.8 856.99,-48.8 999.01,-48.8 999.01,-84.8"/>
<text text-anchor="middle" x="928" y="-62.6" font-family="Times,serif" font-size="14.00">BookFormComponent</text>
</g>
<!-- BookFormComponent&#45;&gt;BooksModule -->
<g id="edge2" class="edge">
<title>BookFormComponent&#45;&gt;BooksModule</title>
<path fill="none" stroke="black" d="M928,-84.83C928,-101.2 928,-122.8 928,-122.8 928,-122.8 747.88,-122.8 747.88,-122.8"/>
<polygon fill="black" stroke="black" points="747.88,-119.3 737.88,-122.8 747.88,-126.3 747.88,-119.3"/>
</g>
<!-- BookListComponent -->
<g id="node3" class="node">
<title>BookListComponent</title>
<polygon fill="#ffffb3" stroke="black" points="838.95,-84.8 705.05,-84.8 705.05,-48.8 838.95,-48.8 838.95,-84.8"/>
<text text-anchor="middle" x="772" y="-62.6" font-family="Times,serif" font-size="14.00">BookListComponent</text>
</g>
<!-- BookListComponent&#45;&gt;BooksModule -->
<g id="edge3" class="edge">
<title>BookListComponent&#45;&gt;BooksModule</title>
<path fill="none" stroke="black" d="M721.47,-84.91C721.47,-84.91 721.47,-103.79 721.47,-103.79"/>
<polygon fill="black" stroke="black" points="717.97,-103.79 721.47,-113.79 724.97,-103.79 717.97,-103.79"/>
</g>
<!-- BookListItemComponent -->
<g id="node4" class="node">
<title>BookListItemComponent</title>
<polygon fill="#ffffb3" stroke="black" points="687.6,-84.8 528.4,-84.8 528.4,-48.8 687.6,-48.8 687.6,-84.8"/>
<text text-anchor="middle" x="608" y="-62.6" font-family="Times,serif" font-size="14.00">BookListItemComponent</text>
</g>
<!-- BookListItemComponent&#45;&gt;BooksModule -->
<g id="edge4" class="edge">
<title>BookListItemComponent&#45;&gt;BooksModule</title>
<path fill="none" stroke="black" d="M664.94,-84.91C664.94,-84.91 664.94,-103.79 664.94,-103.79"/>
<polygon fill="black" stroke="black" points="661.44,-103.79 664.94,-113.79 668.44,-103.79 661.44,-103.79"/>
</g>
<!-- CreateBookComponent -->
<g id="node5" class="node">
<title>CreateBookComponent</title>
<polygon fill="#ffffb3" stroke="black" points="510.2,-84.8 361.8,-84.8 361.8,-48.8 510.2,-48.8 510.2,-84.8"/>
<text text-anchor="middle" x="436" y="-62.6" font-family="Times,serif" font-size="14.00">CreateBookComponent</text>
</g>
<!-- CreateBookComponent&#45;&gt;BooksModule -->
<g id="edge5" class="edge">
<title>CreateBookComponent&#45;&gt;BooksModule</title>
<path fill="none" stroke="black" d="M436,-84.83C436,-101.2 436,-122.8 436,-122.8 436,-122.8 632.22,-122.8 632.22,-122.8"/>
<polygon fill="black" stroke="black" points="632.22,-126.3 642.22,-122.8 632.22,-119.3 632.22,-126.3"/>
</g>
<!-- EditBookComponent -->
<g id="node6" class="node">
<title>EditBookComponent</title>
<polygon fill="#ffffb3" stroke="black" points="343.5,-84.8 208.5,-84.8 208.5,-48.8 343.5,-48.8 343.5,-84.8"/>
<text text-anchor="middle" x="276" y="-62.6" font-family="Times,serif" font-size="14.00">EditBookComponent</text>
</g>
<!-- EditBookComponent&#45;&gt;BooksModule -->
<g id="edge6" class="edge">
<title>EditBookComponent&#45;&gt;BooksModule</title>
<path fill="none" stroke="black" d="M276,-84.91C276,-104.14 276,-131.8 276,-131.8 276,-131.8 632.1,-131.8 632.1,-131.8"/>
<polygon fill="black" stroke="black" points="632.1,-135.3 642.1,-131.8 632.1,-128.3 632.1,-135.3"/>
</g>
<!-- FormMessagesComponent -->
<g id="node7" class="node">
<title>FormMessagesComponent</title>
<polygon fill="#ffffb3" stroke="black" points="190.1,-84.8 23.9,-84.8 23.9,-48.8 190.1,-48.8 190.1,-84.8"/>
<text text-anchor="middle" x="107" y="-62.6" font-family="Times,serif" font-size="14.00">FormMessagesComponent</text>
</g>
<!-- FormMessagesComponent&#45;&gt;BooksModule -->
<g id="edge7" class="edge">
<title>FormMessagesComponent&#45;&gt;BooksModule</title>
<path fill="none" stroke="black" d="M107,-85.09C107,-107.01 107,-140.8 107,-140.8 107,-140.8 632.29,-140.8 632.29,-140.8"/>
<polygon fill="black" stroke="black" points="632.29,-144.3 642.29,-140.8 632.29,-137.3 632.29,-144.3"/>
</g>
<!-- SharedModule -->
<g id="node9" class="node">
<title>SharedModule</title>
<polygon fill="#8dd3c7" stroke="black" points="1291.43,-84.8 1288.43,-88.8 1267.43,-88.8 1264.43,-84.8 1192.57,-84.8 1192.57,-48.8 1291.43,-48.8 1291.43,-84.8"/>
<text text-anchor="middle" x="1242" y="-62.6" font-family="Times,serif" font-size="14.00">SharedModule</text>
</g>
<!-- SharedModule&#45;&gt;BooksModule -->
<g id="edge8" class="edge">
<title>SharedModule&#45;&gt;BooksModule</title>
<path fill="none" stroke="black" d="M1242,-85.09C1242,-107.01 1242,-140.8 1242,-140.8 1242,-140.8 748.02,-140.8 748.02,-140.8"/>
<polygon fill="black" stroke="black" points="748.02,-137.3 738.02,-140.8 748.02,-144.3 748.02,-137.3"/>
</g>
</g>
</svg>
